<svg width="104" height="120" viewBox="0 0 104 120" fill="none" xmlns="http://www.w3.org/2000/svg">
<mask id="mask0_2_36" style="mask-type:luminance" maskUnits="userSpaceOnUse" x="0" y="0" width="104" height="120">
<path d="M103.598 0H0V119.175H103.598V0Z" fill="white"/>
</mask>
<g mask="url(#mask0_2_36)">
<path d="M24.265 71.8569C28.2555 66.2104 33.8865 61.9284 40.394 59.5919C33.9004 57.2664 28.2799 52.9988 24.2956 47.3685C20.3112 41.7383 18.1562 35.0183 18.123 28.1209C18.123 28.0849 18.116 28.0559 18.116 28.0299L18.123 0.00292969H0V119.175H18.123L18.116 91.1479C18.116 91.1229 18.123 91.0939 18.123 91.0569C18.1595 84.1795 20.3031 77.4786 24.265 71.8569Z" fill="#0D988C"/>
<path d="M51.777 57.457C59.5652 57.399 67.0183 54.2806 72.5273 48.775C78.0363 43.2694 81.1592 35.8182 81.222 28.03V0.0110016L63.074 18.148V28.027C63.119 29.5386 62.8601 31.0438 62.3127 32.4534C61.7653 33.8631 60.9406 35.1486 59.8873 36.2337C58.834 37.3188 57.5736 38.1814 56.1809 38.7705C54.7881 39.3596 53.2912 39.6631 51.779 39.6631C50.2668 39.6631 48.7699 39.3596 47.3772 38.7705C45.9844 38.1814 44.724 37.3188 43.6707 36.2337C42.6174 35.1486 41.7927 33.8631 41.2453 32.4534C40.6979 31.0438 40.439 29.5386 40.484 28.027V18.119L22.384 0V28.027C22.4285 35.8122 25.5384 43.2664 31.04 48.7749C36.5416 54.2834 43.9919 57.4027 51.777 57.457Z" fill="#004F5D"/>
<path d="M51.777 61.7209C43.9922 61.775 36.5421 64.8937 31.0404 70.4016C25.5387 75.9095 22.4283 83.3631 22.383 91.1479V119.175L40.483 101.056V91.1479C40.438 89.6364 40.6969 88.1312 41.2443 86.7215C41.7917 85.3118 42.6164 84.0263 43.6697 82.9413C44.723 81.8562 45.9834 80.9935 47.3761 80.4044C48.7689 79.8153 50.2658 79.5118 51.778 79.5118C53.2902 79.5118 54.7871 79.8153 56.1799 80.4044C57.5726 80.9935 58.833 81.8562 59.8863 82.9413C60.9396 84.0263 61.7643 85.3118 62.3117 86.7215C62.8591 88.1312 63.118 89.6364 63.073 91.1479V101.027L81.221 119.165V91.1479C81.1582 83.3597 78.0353 75.9086 72.5263 70.403C67.0173 64.8974 59.5653 61.779 51.777 61.7209Z" fill="#004F5D"/>
<path d="M103.598 0.0109863H85.486V28.027C85.4639 34.9396 83.3132 41.6776 79.3265 47.3248C75.3397 52.9719 69.7104 57.2541 63.204 59.589C69.7105 61.9227 75.3402 66.2042 79.3271 71.8509C83.3139 77.4977 85.4644 84.2356 85.486 91.148V119.165H103.598V0.0109863Z" fill="#0D988C"/>
</g>
</svg>
